<svg width="19" height="18" viewBox="0 0 19 18" fill="none" xmlns="http://www.w3.org/2000/svg">
<path d="M3.96557 10.0042L9.68224 15.7208C9.91557 15.9542 10.0276 16.2264 10.0182 16.5375C10.0089 16.8486 9.88718 17.1208 9.65307 17.3542C9.41974 17.5681 9.14752 17.6801 8.8364 17.6902C8.52529 17.7003 8.25307 17.5883 8.01974 17.3542L0.319738 9.65417C0.203071 9.5375 0.120238 9.41111 0.0712383 9.275C0.0222383 9.13889 -0.00148376 8.99306 7.17953e-05 8.8375C0.00162735 8.68194 0.026127 8.53611 0.0735715 8.4C0.121016 8.26389 0.203461 8.1375 0.320905 8.02083L8.0209 0.320833C8.23479 0.106944 8.50235 0 8.82357 0C9.14479 0 9.42168 0.106944 9.65424 0.320833C9.88757 0.554166 10.0042 0.831444 10.0042 1.15267C10.0042 1.47389 9.88757 1.75078 9.65424 1.98333L3.96557 7.67083H17.0031C17.3336 7.67083 17.6109 7.78283 17.8349 8.00683C18.0589 8.23083 18.1705 8.50772 18.1697 8.8375C18.169 9.16728 18.057 9.44456 17.8337 9.66933C17.6105 9.89411 17.3336 10.0057 17.0031 10.0042H3.96557Z" fill="black"/>
</svg>
